<svg width="32" height="32" viewBox="0 0 32 32" xmlns="http://www.w3.org/2000/svg">
  <path fill="#25d366"
    d="M16 0C7.163 0 0 7.163 0 16c0 2.825.738 5.478 2.031 7.769L0 32l8.5-2.231A15.922 15.922 0 0016 32c8.837 0 16-7.163 16-16S24.837 0 16 0zm0 29.334c-2.488 0-4.825-.684-6.831-1.875l-.481-.281-5.006 1.313 1.331-4.875-.313-.5A13.275 13.275 0 012.666 16C2.666 8.644 8.644 2.666 16 2.666S29.334 8.644 29.334 16 23.356 29.334 16 29.334z" />
  <path fill="#25d366"
    d="M23.488 19.463c-.394-.2-2.331-1.15-2.694-1.281-.363-.131-.625-.2-.888.2-.263.394-1.019 1.281-1.25 1.544-.231.262-.462.3-.856.1-.394-.2-1.662-.613-3.169-1.956-1.169-1.044-1.956-2.331-2.188-2.725-.231-.394-.025-.606.175-.806.181-.181.394-.475.594-.712.2-.238.262-.4.394-.669.131-.262.069-.494-.031-.694-.1-.2-.888-2.138-1.213-2.925-.319-.769-.644-.662-.887-.675-.231-.013-.494-.013-.756-.013s-.694.1-1.056.494c-.363.394-1.381 1.35-1.381 3.3 0 1.95 1.412 3.831 1.606 4.094.2.262 2.769 4.231 6.712 5.931.938.406 1.669.65 2.238.831.938.3 1.794.256 2.469.156.756-.112 2.331-.956 2.656-1.875.325-.919.325-1.706.225-1.875-.1-.169-.362-.269-.756-.469z" />
</svg>
